<svg width="110" height="36" viewBox="0 0 110 36" fill="none" xmlns="http://www.w3.org/2000/svg">
<path d="M18.169 12.5625C18.169 14.996 16.1963 16.9688 13.7628 16.9688C11.3293 16.9688 9.35652 14.996 9.35652 12.5625C9.35652 10.129 11.3293 8.15625 13.7628 8.15625C16.1963 8.15625 18.169 10.129 18.169 12.5625Z" fill="#005E6A"/>
<path d="M1.28688 12.6732C0.199404 13.107 -0.342603 14.3496 0.233601 15.3688C1.42537 17.4768 3.0937 19.2895 5.11651 20.6552C7.72753 22.418 10.8084 23.3548 13.9588 23.3437C17.1092 23.3325 20.1834 22.3741 22.782 20.5928C24.7951 19.2128 26.4506 17.3885 27.6274 15.2721C28.1964 14.2489 27.6456 13.0101 26.5551 12.584C25.4646 12.1579 24.2507 12.7111 23.6314 13.7047C22.7987 15.0405 21.6956 16.1972 20.3847 17.0957C18.4878 18.396 16.2437 19.0957 13.9439 19.1038C11.6441 19.112 9.39501 18.4281 7.48897 17.1413C6.17183 16.252 5.06058 15.1031 4.21846 13.7732C3.5921 12.7841 2.37436 12.2394 1.28688 12.6732Z" fill="#005E6A"/>
<path d="M12.919 1.03125C12.919 0.461706 13.3807 0 13.9503 0C14.5198 0 14.9815 0.461706 14.9815 1.03125V5.34375C14.9815 5.91329 14.5198 6.375 13.9503 6.375C13.3807 6.375 12.919 5.91329 12.919 5.34375V1.03125Z" fill="#005E6A"/>
<path d="M22.9789 4.38545C23.3816 3.98273 24.0345 3.98273 24.4373 4.38545C24.84 4.78818 24.84 5.44113 24.4373 5.84386L21.3879 8.89326C20.9852 9.29599 20.3322 9.29599 19.9295 8.89326C19.5267 8.49053 19.5267 7.83758 19.9295 7.43485L22.9789 4.38545Z" fill="#005E6A"/>
<path d="M4.92947 4.38545C4.52674 3.98273 3.87379 3.98273 3.47107 4.38545C3.06834 4.78818 3.06834 5.44113 3.47107 5.84386L6.52046 8.89326C6.92319 9.29599 7.57614 9.29599 7.97887 8.89326C8.3816 8.49053 8.3816 7.83758 7.97887 7.43485L4.92947 4.38545Z" fill="#005E6A"/>
<path d="M7.66902 21.2812H20.2315V32.25C20.2315 34.3211 18.5526 36 16.4815 36H11.419C9.34795 36 7.66902 34.3211 7.66902 32.25V21.2812Z" fill="#005E6A"/>
<path d="M43.6505 9.0744C43.5993 8.55877 43.3799 8.1582 42.9921 7.87269C42.6043 7.58718 42.078 7.44442 41.4133 7.44442C40.9616 7.44442 40.5802 7.50834 40.2691 7.63619C39.958 7.75977 39.7194 7.93235 39.5532 8.15394C39.3912 8.37553 39.3103 8.62695 39.3103 8.9082C39.3018 9.14258 39.3508 9.34712 39.4573 9.52184C39.5681 9.69656 39.7194 9.84783 39.9111 9.97567C40.1029 10.0993 40.3245 10.2079 40.5759 10.3017C40.8273 10.3912 41.0958 10.4679 41.3813 10.5318L42.5574 10.813C43.1285 10.9409 43.6526 11.1113 44.1299 11.3244C44.6072 11.5375 45.0205 11.7995 45.3699 12.1106C45.7194 12.4217 45.99 12.7882 46.1817 13.21C46.3778 13.6319 46.4779 14.1156 46.4822 14.661C46.4779 15.4622 46.2733 16.1568 45.8685 16.7449C45.468 17.3287 44.8884 17.7825 44.1299 18.1064C43.3756 18.426 42.4658 18.5858 41.4005 18.5858C40.3437 18.5858 39.4232 18.4238 38.6391 18.1C37.8593 17.7761 37.2499 17.2967 36.811 16.6618C36.3763 16.0225 36.1483 15.2321 36.127 14.2903H38.8053C38.8351 14.7292 38.9608 15.0957 39.1824 15.3897C39.4083 15.6795 39.7087 15.899 40.0837 16.0481C40.463 16.193 40.8912 16.2654 41.3685 16.2654C41.8373 16.2654 42.2442 16.1973 42.5894 16.0609C42.9388 15.9245 43.2094 15.7349 43.4012 15.492C43.593 15.2491 43.6888 14.97 43.6888 14.6547C43.6888 14.3606 43.6015 14.1135 43.4268 13.9132C43.2563 13.7129 43.0049 13.5424 42.6725 13.4018C42.3444 13.2612 41.9417 13.1333 41.4644 13.0183L40.039 12.6603C38.9353 12.3919 38.0638 11.9721 37.4246 11.4011C36.7854 10.8301 36.468 10.0609 36.4722 9.09357C36.468 8.30096 36.6789 7.60849 37.105 7.01616C37.5354 6.42383 38.1256 5.96147 38.8756 5.62908C39.6256 5.2967 40.4779 5.1305 41.4324 5.1305C42.404 5.1305 43.252 5.2967 43.9765 5.62908C44.7052 5.96147 45.2719 6.42383 45.6768 7.01616C46.0816 7.60849 46.2904 8.29457 46.3032 9.0744H43.6505ZM50.4 15.5751L50.4064 12.3088H50.8027L53.9476 8.58221H57.0733L52.8482 13.5169H52.2026L50.4 15.5751ZM47.9327 18.4004V5.30948H50.6557V18.4004H47.9327ZM54.0691 18.4004L51.1799 14.1241L52.9952 12.2001L57.2587 18.4004H54.0691ZM58.0493 18.4004V8.58221H60.7723V18.4004H58.0493ZM59.4172 7.31658C59.0123 7.31658 58.665 7.18235 58.3753 6.91388C58.0897 6.64116 57.947 6.31516 57.947 5.9359C57.947 5.5609 58.0897 5.23917 58.3753 4.9707C58.665 4.69798 59.0123 4.56161 59.4172 4.56161C59.822 4.56161 60.1672 4.69798 60.4527 4.9707C60.7424 5.23917 60.8873 5.5609 60.8873 5.9359C60.8873 6.31516 60.7424 6.64116 60.4527 6.91388C60.1672 7.18235 59.822 7.31658 59.4172 7.31658ZM65.3166 5.30948V18.4004H62.5936V5.30948H65.3166ZM69.8609 5.30948V18.4004H67.1379V5.30948H69.8609ZM79.8512 11.3819L77.3583 11.5353C77.3157 11.3223 77.2241 11.1305 77.0834 10.96C76.9428 10.7853 76.7574 10.6468 76.5273 10.5446C76.3015 10.438 76.0309 10.3848 75.7155 10.3848C75.2937 10.3848 74.9378 10.4743 74.6481 10.6532C74.3583 10.8279 74.2134 11.0623 74.2134 11.3564C74.2134 11.5907 74.3072 11.7889 74.4947 11.9508C74.6822 12.1127 75.0039 12.2427 75.4599 12.3407L77.2368 12.6987C78.1914 12.8947 78.903 13.21 79.3718 13.6447C79.8405 14.0794 80.0749 14.6504 80.0749 15.3578C80.0749 16.0012 79.8853 16.5659 79.506 17.0517C79.131 17.5375 78.6154 17.9167 77.9591 18.1895C77.3072 18.4579 76.555 18.5922 75.7028 18.5922C74.403 18.5922 73.3675 18.3216 72.5962 17.7804C71.8292 17.2349 71.3796 16.4934 71.2475 15.5559L73.9258 15.4153C74.0067 15.8116 74.2028 16.1142 74.5138 16.323C74.8249 16.5275 75.2233 16.6298 75.7091 16.6298C76.1864 16.6298 76.5699 16.5382 76.8597 16.3549C77.1537 16.1674 77.3029 15.9267 77.3072 15.6326C77.3029 15.3855 77.1985 15.1831 76.9939 15.0254C76.7894 14.8635 76.4741 14.7399 76.0479 14.6547L74.3476 14.3159C73.3888 14.1241 72.6751 13.7917 72.2063 13.3187C71.7418 12.8457 71.5096 12.2427 71.5096 11.5098C71.5096 10.8791 71.68 10.3358 72.0209 9.87979C72.3661 9.42383 72.8498 9.07227 73.4719 8.82511C74.0983 8.57795 74.8313 8.45437 75.6708 8.45437C76.9108 8.45437 77.8867 8.71644 78.5983 9.24059C79.3143 9.76474 79.7319 10.4785 79.8512 11.3819ZM48.0993 25.8926H45.2996C45.2485 25.5304 45.1441 25.2086 44.9864 24.9274C44.8287 24.6419 44.6263 24.399 44.3792 24.1987C44.132 23.9984 43.8465 23.845 43.5226 23.7385C43.203 23.6319 42.8557 23.5787 42.4807 23.5787C41.8032 23.5787 41.213 23.747 40.7101 24.0836C40.2073 24.416 39.8174 24.9018 39.5404 25.541C39.2634 26.176 39.1249 26.9473 39.1249 27.8549C39.1249 28.7882 39.2634 29.5723 39.5404 30.2072C39.8216 30.8422 40.2137 31.3216 40.7165 31.6454C41.2194 31.9693 41.801 32.1312 42.4616 32.1312C42.8323 32.1312 43.1753 32.0822 43.4907 31.9842C43.8103 31.8862 44.0937 31.7434 44.3408 31.5559C44.588 31.3642 44.7925 31.1319 44.9545 30.8592C45.1207 30.5865 45.2357 30.2754 45.2996 29.926L48.0993 29.9387C48.0269 30.5396 47.8458 31.1191 47.556 31.6774C47.2705 32.2314 46.8849 32.7278 46.3991 33.1667C45.9175 33.6014 45.3422 33.9466 44.6732 34.2022C44.0084 34.4537 43.2563 34.5794 42.4168 34.5794C41.2492 34.5794 40.2052 34.3152 39.2847 33.7868C38.3685 33.2583 37.6441 32.4934 37.1114 31.492C36.583 30.4906 36.3188 29.2782 36.3188 27.8549C36.3188 26.4274 36.5873 25.2129 37.1242 24.2115C37.6611 23.21 38.3898 22.4473 39.3103 21.9231C40.2307 21.3947 41.2662 21.1305 42.4168 21.1305C43.1753 21.1305 43.8785 21.237 44.5262 21.4501C45.1782 21.6632 45.7556 21.9743 46.2584 22.3833C46.7613 22.7882 47.1704 23.2846 47.4857 23.8727C47.8053 24.4608 48.0099 25.1341 48.0993 25.8926ZM54.109 34.5922C53.1161 34.5922 52.2575 34.3812 51.533 33.9593C50.8129 33.5332 50.2567 32.9409 49.8647 32.1824C49.4727 31.4196 49.2766 30.5353 49.2766 29.5297C49.2766 28.5154 49.4727 27.6291 49.8647 26.8706C50.2567 26.1078 50.8129 25.5154 51.533 25.0936C52.2575 24.6674 53.1161 24.4544 54.109 24.4544C55.1019 24.4544 55.9584 24.6674 56.6786 25.0936C57.4031 25.5154 57.9613 26.1078 58.3533 26.8706C58.7454 27.6291 58.9414 28.5154 58.9414 29.5297C58.9414 30.5353 58.7454 31.4196 58.3533 32.1824C57.9613 32.9409 57.4031 33.5332 56.6786 33.9593C55.9584 34.3812 55.1019 34.5922 54.109 34.5922ZM54.1218 32.4828C54.5735 32.4828 54.9506 32.3549 55.2532 32.0993C55.5557 31.8393 55.7837 31.4856 55.9371 31.0382C56.0948 30.5907 56.1736 30.0815 56.1736 29.5105C56.1736 28.9395 56.0948 28.4302 55.9371 27.9828C55.7837 27.5353 55.5557 27.1816 55.2532 26.9217C54.9506 26.6618 54.5735 26.5318 54.1218 26.5318C53.6658 26.5318 53.2823 26.6618 52.9712 26.9217C52.6644 27.1816 52.4322 27.5353 52.2745 27.9828C52.1211 28.4302 52.0444 28.9395 52.0444 29.5105C52.0444 30.0815 52.1211 30.5907 52.2745 31.0382C52.4322 31.4856 52.6644 31.8393 52.9712 32.0993C53.2823 32.3549 53.6658 32.4828 54.1218 32.4828ZM63.075 28.7243V34.4004H60.352V24.5822H62.9472V26.3145H63.0622C63.2796 25.7434 63.6439 25.2917 64.1553 24.9593C64.6666 24.6227 65.2867 24.4544 66.0154 24.4544C66.6972 24.4544 67.2916 24.6035 67.7987 24.9018C68.3058 25.2001 68.7 25.6262 68.9813 26.1802C69.2625 26.7299 69.4031 27.3862 69.4031 28.149V34.4004H66.6801V28.6348C66.6844 28.0339 66.531 27.5652 66.2199 27.2285C65.9088 26.8876 65.4806 26.7172 64.9351 26.7172C64.5686 26.7172 64.2448 26.796 63.9635 26.9537C63.6865 27.1113 63.4692 27.3414 63.3115 27.644C63.1581 27.9423 63.0793 28.3024 63.075 28.7243ZM73.9123 28.7243V34.4004H71.1893V24.5822H73.7844V26.3145H73.8995C74.1168 25.7434 74.4812 25.2917 74.9925 24.9593C75.5039 24.6227 76.1239 24.4544 76.8526 24.4544C77.5344 24.4544 78.1289 24.6035 78.636 24.9018C79.1431 25.2001 79.5373 25.6262 79.8185 26.1802C80.0998 26.7299 80.2404 27.3862 80.2404 28.149V34.4004H77.5174V28.6348C77.5216 28.0339 77.3682 27.5652 77.0572 27.2285C76.7461 26.8876 76.3178 26.7172 75.7724 26.7172C75.4059 26.7172 75.082 26.796 74.8008 26.9537C74.5238 27.1113 74.3065 27.3414 74.1488 27.644C73.9954 27.9423 73.9165 28.3024 73.9123 28.7243ZM86.501 34.5922C85.491 34.5922 84.6217 34.3876 83.893 33.9785C83.1686 33.5652 82.6103 32.9814 82.2183 32.2271C81.8262 31.4686 81.6302 30.5716 81.6302 29.536C81.6302 28.5261 81.8262 27.6397 82.2183 26.877C82.6103 26.1142 83.1622 25.5197 83.8738 25.0936C84.5897 24.6674 85.4292 24.4544 86.3923 24.4544C87.04 24.4544 87.643 24.5588 88.2012 24.7676C88.7637 24.9721 89.2538 25.2811 89.6714 25.6944C90.0933 26.1078 90.4214 26.6277 90.6558 27.2541C90.8902 27.8762 91.0074 28.6049 91.0074 29.4402V30.188H82.7169V28.5005H88.4441C88.4441 28.1085 88.3589 27.7612 88.1885 27.4586C88.018 27.1561 87.7815 26.9196 87.4789 26.7491C87.1807 26.5744 86.8334 26.487 86.437 26.487C86.0237 26.487 85.6572 26.5829 85.3376 26.7747C85.0223 26.9622 84.7751 27.2157 84.5961 27.5353C84.4172 27.8507 84.3255 28.2022 84.3213 28.59V30.1944C84.3213 30.6802 84.4108 31.1 84.5897 31.4537C84.773 31.8074 85.0308 32.0801 85.3632 32.2718C85.6956 32.4636 86.0897 32.5595 86.5457 32.5595C86.8483 32.5595 87.1253 32.5169 87.3767 32.4316C87.6281 32.3464 87.8433 32.2186 88.0223 32.0481C88.2012 31.8777 88.3376 31.6689 88.4314 31.4217L90.9498 31.5879C90.822 32.193 90.5599 32.7214 90.1636 33.1731C89.7716 33.6206 89.2645 33.97 88.6423 34.2214C88.0244 34.4686 87.3106 34.5922 86.501 34.5922ZM96.8604 34.5922C95.8547 34.5922 94.9897 34.3791 94.2653 33.9529C93.5451 33.5225 92.9911 32.926 92.6033 32.1632C92.2198 31.4004 92.028 30.5225 92.028 29.5297C92.028 28.524 92.2219 27.6419 92.6097 26.8833C93.0018 26.1206 93.5579 25.5261 94.278 25.1C94.9982 24.6696 95.8547 24.4544 96.8476 24.4544C97.7042 24.4544 98.4542 24.6099 99.0976 24.921C99.7411 25.2321 100.25 25.6689 100.625 26.2314C101 26.7939 101.207 27.4544 101.245 28.2129H98.6758C98.6033 27.7228 98.4116 27.3287 98.1005 27.0304C97.7937 26.7278 97.391 26.5765 96.8924 26.5765C96.4705 26.5765 96.1019 26.6916 95.7866 26.9217C95.4755 27.1475 95.2326 27.4778 95.0579 27.9125C94.8832 28.3471 94.7958 28.8734 94.7958 29.4913C94.7958 30.1177 94.881 30.6504 95.0515 31.0893C95.2262 31.5282 95.4712 31.8627 95.7866 32.0929C96.1019 32.323 96.4705 32.438 96.8924 32.438C97.2035 32.438 97.4826 32.3741 97.7297 32.2463C97.9812 32.1184 98.1878 31.9331 98.3498 31.6902C98.516 31.443 98.6246 31.1468 98.6758 30.8017H101.245C101.203 31.5517 100.998 32.2122 100.632 32.7832C100.27 33.35 99.7688 33.7931 99.1296 34.1127C98.4904 34.4324 97.734 34.5922 96.8604 34.5922ZM107.851 24.5822V26.6277H101.938V24.5822H107.851ZM103.281 22.2299H106.004V31.3833C106.004 31.6348 106.042 31.8308 106.119 31.9714C106.196 32.1078 106.302 32.2037 106.438 32.2591C106.579 32.3145 106.741 32.3422 106.924 32.3422C107.052 32.3422 107.18 32.3315 107.308 32.3102C107.436 32.2846 107.534 32.2654 107.602 32.2527L108.03 34.2789C107.894 34.3216 107.702 34.3706 107.455 34.426C107.208 34.4856 106.907 34.5218 106.554 34.5346C105.897 34.5602 105.322 34.4728 104.828 34.2725C104.338 34.0723 103.956 33.7612 103.683 33.3393C103.411 32.9174 103.277 32.3848 103.281 31.7413V22.2299Z" fill="#005E6A"/>
</svg>
